<svg width="40" height="40" viewBox="0 0 40 40" fill="none" xmlns="http://www.w3.org/2000/svg">
<circle cx="20" cy="18" r="16" fill="url(#paint0_linear_3488_2757)"/>
<circle cx="20" cy="18" r="13.44" fill="#B0F7FF"/>
<path d="M29.12 26.64H25.92L24 30.32L26.72 29.2L29.12 26.64Z" fill="#FFCCFE"/>
<path d="M26.24 26.64H22.72L21.28 30.64L23.84 30L26.24 26.64Z" fill="#99F7FF"/>
<path d="M22.88 26.64H17.28L18.4 30.16L20 31.12L22.88 26.64Z" fill="#FE34FB"/>
<path d="M17.44 26.8H14.24L15.36 28.72L18.72 30.48L17.44 26.8Z" fill="#FFCCFE"/>
<path d="M14.08 26.8H11.04L12.64 28.56L16 30L14.08 26.8Z" fill="#FE67FC"/>
<path d="M16 21.04H11.84L13.76 26.64H17.28L16 21.04Z" fill="#FE01FA"/>
<path d="M32.48 20.88H28.16L26.24 26.48H29.12L31.04 24.72L32.48 20.88Z" fill="#33EEFF"/>
<path d="M28.16 21.04H23.68L22.88 26.8H26.4L28.16 21.04Z" fill="#FF99FD"/>
<path d="M10.72 26.8L7.20001 21.04H11.84L13.76 26.8H10.72Z" fill="#33EEFF"/>
<path d="M23.84 20.88H16.16L17.28 26.8H22.72L23.84 20.88Z" fill="#99F7FF"/>
<path d="M11.36 8.88003L14.56 6.16003H15.68L14.24 9.20003L11.36 8.88003Z" fill="#E6FDFF"/>
<path d="M13.92 9.52L16.64 6H18.56L17.44 9.52H13.92Z" fill="#FF99FD"/>
<path d="M17.12 9.52002L18.88 5.52002H20.96L22.88 9.52002H17.12Z" fill="#99F7FF"/>
<path d="M26.5601 9.52003L24.3201 6.80003L25.6001 6.16003L29.1201 9.04003L26.5601 9.52003Z" fill="#FE67FC"/>
<path d="M22.5601 9.2L21.4401 6H24.0001L25.9201 9.2H22.5601Z" fill="#66F2FF"/>
<path d="M28.16 15.28L26.4 9.52002H29.92L32.64 15.28H28.16Z" fill="#FE01FA"/>
<path d="M7.52002 15.12L10.4 9.52002H13.76L11.84 15.12H7.52002Z" fill="#FE01FA"/>
<path d="M16.16 15.28L17.44 9.20001H22.88L23.68 15.28H16.16Z" fill="#FFE6FF"/>
<path d="M23.84 15.28L23.04 9.67999H26.56L28.16 15.28H23.84Z" fill="#FE67FC"/>
<path d="M12 15.12L13.76 9.67999H17.12L16.32 15.12H12Z" fill="#99F7FF"/>
<path d="M7.52002 21.2V14.96H11.84V21.2H7.52002Z" fill="#99F7FF"/>
<path d="M16 21.04L16.64 15.12H12V21.04H16Z" fill="#FE67FC"/>
<path d="M23.68 14.96H17.76H16.16V20.88H23.68V14.96Z" fill="#FF99FD"/>
<path d="M28.32 14.96H24.8H24V20.72H28.32V14.96Z" fill="#FF99FD"/>
<path d="M32.6401 15.12H29.7601H28.3201V20.88H32.6401V15.12Z" fill="#66F2FF"/>
<mask id="mask0_3488_2757" style="mask-type:alpha" maskUnits="userSpaceOnUse" x="6" y="4" width="28" height="28">
<circle cx="20" cy="18" r="13.44" fill="#FE01FA"/>
</mask>
<g mask="url(#mask0_3488_2757)">
<rect x="4.64001" y="8.71997" width="28.8" height="1.28" fill="black"/>
<rect x="4.64001" y="20.24" width="28.8" height="1.28" fill="black"/>
<rect x="4.64001" y="14.48" width="28.8" height="1.28" fill="black"/>
<rect x="4.64001" y="26" width="28.8" height="1.28" fill="black"/>
</g>
<path d="M23.84 18C23.84 21.6617 23.3443 24.9502 22.5607 27.3011C22.1678 28.4799 21.714 29.3877 21.2412 29.9877C20.7627 30.5948 20.3384 30.8 20 30.8C19.6616 30.8 19.2374 30.5948 18.7589 29.9877C18.2861 29.3877 17.8323 28.4799 17.4393 27.3011C16.6557 24.9502 16.16 21.6617 16.16 18C16.16 14.3383 16.6557 11.0498 17.4393 8.69887C17.8323 7.52006 18.2861 6.61227 18.7589 6.01232C19.2374 5.40516 19.6616 5.2 20 5.2C20.3384 5.2 20.7627 5.40516 21.2412 6.01232C21.714 6.61227 22.1678 7.52006 22.5607 8.69887C23.3443 11.0498 23.84 14.3383 23.84 18Z" stroke="black" stroke-width="1.28"/>
<circle cx="20" cy="18" r="12.8" stroke="black" stroke-width="1.28"/>
<path d="M28.32 18C28.32 21.6026 27.3453 24.8352 25.8031 27.1485C24.258 29.4662 22.1936 30.8 20 30.8C17.8063 30.8 15.742 29.4662 14.1968 27.1485C12.6546 24.8352 11.68 21.6026 11.68 18C11.68 14.3974 12.6546 11.1648 14.1968 8.85149C15.742 6.53375 17.8063 5.2 20 5.2C22.1936 5.2 24.258 6.53375 25.8031 8.85149C27.3453 11.1648 28.32 14.3974 28.32 18Z" stroke="black" stroke-width="1.28"/>
<mask id="mask1_3488_2757" style="mask-type:alpha" maskUnits="userSpaceOnUse" x="4" y="2" width="32" height="32">
<circle cx="20" cy="18" r="16" fill="#D9D9D9"/>
</mask>
<g mask="url(#mask1_3488_2757)">
<path d="M25.44 3.28003L26.2003 11.4797L34.4 12.24L26.2003 13.0003L25.44 21.2L24.6797 13.0003L16.48 12.24L24.6797 11.4797L25.44 3.28003Z" fill="white"/>
<path d="M14.56 17.36L15.2841 23.036L20.96 23.76L15.2841 24.4841L14.56 30.16L13.8359 24.4841L8.15997 23.76L13.8359 23.036L14.56 17.36Z" fill="white"/>
<path d="M16.48 3.28003L16.9552 7.28485L20.96 7.76003L16.9552 8.23521L16.48 12.24L16.0048 8.23521L12 7.76003L16.0048 7.28485L16.48 3.28003Z" fill="white"/>
</g>
<defs>
<linearGradient id="paint0_linear_3488_2757" x1="20" y1="34" x2="20" y2="2" gradientUnits="userSpaceOnUse">
<stop offset="0.0819109" stop-color="#00EAFF"/>
<stop offset="0.921842" stop-color="#FE01FA"/>
</linearGradient>
</defs>
</svg>
